<?xml version="1.0" standalone="no"?>
<!DOCTYPE svg PUBLIC "-//W3C//DTD SVG 20010904//EN"
 "http://www.w3.org/TR/2001/REC-SVG-20010904/DTD/svg10.dtd">
<svg version="1.0" xmlns="http://www.w3.org/2000/svg"
 width="500.000000pt" height="500.000000pt" viewBox="0 0 500.000000 500.000000"
 preserveAspectRatio="xMidYMid meet">
<metadata>
Created by potrace 1.11, written by Peter Selinger 2001-2013
</metadata>
<g transform="translate(0.000000,500.000000) scale(0.100000,-0.100000)"
fill="#000000" stroke="none">
<path d="M430 3790 l0 -690 230 0 230 0 0 460 0 460 460 0 460 0 0 230 0 230
-690 0 -690 0 0 -690z"/>
<path d="M3190 4250 l0 -230 460 0 460 0 0 -460 0 -460 230 0 230 0 0 690 0
690 -690 0 -690 0 0 -230z"/>
<path d="M430 1030 l0 -690 690 0 690 0 0 230 0 230 -460 0 -460 0 0 460 0
460 -230 0 -230 0 0 -690z"/>
<path d="M4110 1260 l0 -460 -460 0 -460 0 0 -230 0 -230 690 0 690 0 0 690 0
690 -230 0 -230 0 0 -460z"/>
</g>
</svg>
